<svg xmlns="http://www.w3.org/2000/svg" width="512" height="512" viewBox="0 0 512 512">
<path d="M230.7 69.7c-.4.3-.7 8.2-.7 17.5l-.2 16.8c-.2 0-5.7-5.3-12.3-11.8-12.5-12.3-26.4-22.5-29.8-22-3.9.6-4.2 3-1.5 11.4 2.8 8.3 6.2 23.4 5.5 24.1-.3.2-4.4-2.1-9.3-5-16.8-10.3-34.3-18.1-39.1-17.5-3.8.4-4.3 4.3-1 9.5 5.3 8.4 13.4 26.3 11.9 26.3-.4 0-4.3-1.2-8.7-2.5-9.8-3.1-21-5.2-33.4-6.5-7.9-.9-9.8-.8-11.8.5-1.2.9-2.3 2-2.3 2.6s5.2 6.5 11.5 13.1 11.5 12.4 11.5 12.9-2.1.9-4.7.9c-7.2 0-22.1 2.7-31.5 5.6-11.5 3.6-14 5-13.6 7.7.3 2.3.6 2.4 14.9 9 5.3 2.5 11.3 5.6 13.4 7 3.4 2.3 3.6 2.7 1.9 3.3-15.5 5.6-32.4 14.8-40.1 21.7-2.5 2.2-3 5.9-1 7.4.6.6 4.6 1.4 8.7 1.7 7.3.7 19.3 3.1 21.1 4.2.5.3-.6 1.7-2.3 3.1-6.1 4.9-20.9 19.8-25.9 26-3.8 4.7-5 6.9-4.7 9 .4 3.4 3.4 4 11.8 2.4 3-.6 8.7-1.3 12.5-1.7l7-.7-2.1 2.4c-6.9 7.9-18.9 30.1-21.5 40.1-1 3.8-1 4.9 0 6.2 1.9 2.2 3.3 2 10.1-1.4 3.3-1.7 8.3-3.9 11.1-5 4.8-1.9 5.1-1.9 4.4-.3-3.2 7.9-6.7 26-7.2 37-.6 12.6 0 15.3 3.4 15.3.7 0 5.3-3.7 10-8.1l8.6-8.2 2.2 9.4c2.7 12.3 7 20.2 15.5 28.4 12 11.6 29.8 18.3 54.5 20.5 7.5.7 48 1.2 107.1 1.3l95 .2 4.1-2.7c2.4-1.6 4.9-4.4 6.2-7 2-4.3 2.1-5.6 2.1-52.2 0-39.4-.2-48.2-1.4-50.4-.8-1.5-7.3-8.6-14.5-15.7l-13.1-13-44.3-.5c-38.4-.4-43.6-.7-39.7-1.8 33.7-9.7 52.5-18.7 67.1-32 3-2.7 6.9-5.3 8.7-5.7 7.3-1.5 14-11.2 12.8-18.1-.9-4.4-4.9-9-9.1-10.4s-9.1-.1-13.4 3.5c-2.7 2.3-2.9 2.4-8.9 1-17.5-4.1-35.1-14.2-48.8-27.9-10.3-10.3-14.8-17.1-17.8-27.2-5.7-19-12.7-31.7-25.6-46.3-5.7-6.5-7.7-8.1-9.9-8.1-1.5 0-3.1.3-3.4.7zM211 97.9c4.7 4.7 10.8 11.7 13.4 15.4 4.1 5.8 5.2 6.8 7.5 6.5 1.6-.2 3-1.3 3.8-2.9 1.7-3.5 3.3-14.8 3.3-23.2 0-8.5.8-8.4 7.4.9 6.3 9 10.9 18.9 14.2 30.6 8 28.2 41.7 55.6 77.5 63.2 2 .4 2.8 1.4 3.3 3.8 1.4 6.8 1.3 7-4.9 12.1-13.3 10.8-26.8 17.1-54.8 25.3-28.1 8.3-35 11.9-40.4 21.1-2.6 4.4-2.8 5.8-3.3 17.6l-.5 12.8-5.3-2.7c-3.2-1.6-7.5-5.1-11.1-9.1-6.3-7-9-7.8-11.7-3.7-1.3 1.8-1.1 2.6 1.8 6.9 3.9 5.8 12.8 12.6 20.6 15.5 3.4 1.3 9.1 2.4 14.2 2.7 8 .5 11 1.4 11 3.4 0 2.4-6.7 8-11.8 10-7.9 3.1-21.7 3.1-32.5.1-5.8-1.7-8.3-2-9.7-1.2-2.7 1.5-2.6 5.6.3 7.4 4.4 2.7 16 5 25.5 5.1h9.4l-.4 16c-.3 12.5-.8 16.9-2.2 20.2l-1.8 4.3h-7c-8 0-10.8 1.1-10.8 4.4 0 3.6 1.8 4.3 12 4.8 9.4.4 13.4 1.7 14.5 4.7.3.7 0 2-.7 2.8-1.1 1.3-5.8 1.5-34.3 1-41.3-.7-50.8-2.2-67-10.6-16.3-8.4-25.5-24-25.5-43 0-3.2-.5-6.2-1.2-6.9-2.9-2.9-8.6-.8-17.5 6.5-2.9 2.3-4.3 2.9-4.3 2 0-4.3 3.7-19.7 7.2-30.4 3.4-10.1 3.9-12.5 2.8-13.8-1.8-2.2-8.1-1.9-16.6 1-4.1 1.4-7.7 2.5-8 2.5-1.5 0 9.1-17.9 16.3-27.5 4.6-6 8.3-11.5 8.3-12.1 0-.7-.8-2-1.7-2.9-1.4-1.5-3.5-1.7-14.4-1.3l-12.7.4 3-3.4c4.2-4.9 13.3-13 20.5-18.6 9.5-7.2 10.2-10.1 3.4-13.5-3.4-1.8-14-5.1-20.6-6.6-2.9-.6-2.9-.7-1-2.2 4.2-3.1 15.7-8.3 26.1-11.9 12-4.1 13.4-4.9 13.4-7.3 0-3.1-11.9-12.5-22.9-18.1-5.5-2.7-4.8-3.2 7.4-5.5 5.6-1.1 12.8-1.6 19.5-1.5 12.9.3 12.7.4 13.4-1.6 1.1-2.8-3.2-9.4-14.2-22.2-4.7-5.4-5.1-6.2-3.1-5.8 1.3.3 6 1.2 10.4 2.1 9.1 1.9 18.4 4.7 26.8 8.2 5.5 2.2 6.1 2.3 8.3.8 1.3-.8 2.4-2.4 2.4-3.5 0-2.6-4.5-16.6-7.6-23.5-1.3-3.2-2.3-6-2-6.3.9-.8 22.6 11.6 31.3 17.9 4.5 3.2 8.8 5.9 9.6 5.9.7 0 2.2-.9 3.2-2 1.7-1.9 1.7-2.5.1-14.2-.9-6.8-1.9-13.6-2.3-15.2-.6-2.7-.5-2.8 1.8-1.5 1.3.7 6.2 5.1 10.9 9.8zm145 164.5c0 15.9.1 16 15.4 16.4l11.6.4V323c0 31.9-.3 44.6-1.2 46.5-2.5 5.6-1.5 5.5-67.8 5.5h-61v-3.8c0-4.8-3-9.6-7-11.3-2.4-1.1-3-1.8-2.5-3.4 2.8-8.8 3.5-14.4 3.5-28.1v-15l4.5-2.2c13.3-6.5 18.3-18.2 10.7-25.5-2.2-2.1-3.8-2.6-8.7-2.9l-6-.3-.3-11c-.3-12.5-.1-14.1 2.9-17.8l2-2.7H356v11.4zm22 7.9c0 .4-3 .7-6.7.5l-6.8-.3-.3-7.5-.3-7.5 7.1 7c3.8 3.8 7 7.3 7 7.8zM201.2 167.1c-12.4 6.2-13.2 23.5-1.5 32.4 7.4 5.7 13.3 5.6 13.3-.2 0-1.7-.9-2.9-3.2-4.1-7.8-4.1-11-9.8-8.8-15.3 2.5-5.9 10.3-7.6 16.1-3.4 5.7 4.2 7.9 5 9.7 3.8 3.3-2 2.6-5.8-1.7-9.2-8.1-6.4-16.2-7.8-23.9-4zm65.8 7.2c-3.8 1.9-5.5 6.1-4 9.8 2.3 5.4 8.4 6.6 12.5 2.4 3.1-3 3.2-6.6.3-9.9-2.9-3.1-5.7-3.9-8.8-2.3z"/>

<g transform="translate(315, 320)">
<circle cx="0" cy="0" r="10" fill="currentColor"/>
<circle cx="0" cy="0" r="45" fill="none" stroke="currentColor" stroke-width="3"/>
<circle cx="32" cy="-32" r="6" fill="currentColor"/>
</g>
</svg>